<mxfile host="app.diagrams.net" modified="2022-04-07T01:13:06.995Z" agent="5.0 (Windows NT 10.0; Win64; x64) AppleWebKit/537.36 (KHTML, like Gecko) Chrome/99.0.4844.84 Safari/537.36" etag="IBN9CEDdp-z6p9eTcFBh" version="17.4.0" type="github">
  <diagram id="kgpKYQtTHZ0yAKxKKP6v" name="Page-1">
    <mxGraphModel dx="711" dy="558" grid="1" gridSize="10" guides="1" tooltips="1" connect="1" arrows="1" fold="1" page="1" pageScale="1" pageWidth="850" pageHeight="1100" math="0" shadow="0">
      <root>
        <mxCell id="0" />
        <mxCell id="1" parent="0" />
        <mxCell id="EABOTO-MHlJF12CyAiMk-1" value="Interaction1 heading" style="shape=umlFrame;tabWidth=110;tabHeight=30;tabPosition=left;html=1;boundedLbl=1;labelInHeader=1;width=140;height=30;hachureGap=4;" vertex="1" parent="1">
          <mxGeometry x="90" y="200" width="412.5" height="180" as="geometry" />
        </mxCell>
        <mxCell id="EABOTO-MHlJF12CyAiMk-2" value="Valid User" style="text;hachureGap=4;" vertex="1" parent="EABOTO-MHlJF12CyAiMk-1">
          <mxGeometry width="100" height="20" relative="1" as="geometry">
            <mxPoint x="20" y="40" as="offset" />
          </mxGeometry>
        </mxCell>
        <mxCell id="EABOTO-MHlJF12CyAiMk-3" value="Invalid User" style="line;strokeWidth=1;dashed=1;labelPosition=center;verticalLabelPosition=bottom;align=left;verticalAlign=top;spacingLeft=20;spacingTop=15;hachureGap=4;" vertex="1" parent="EABOTO-MHlJF12CyAiMk-1">
          <mxGeometry y="90" width="412.5" height="7.2" as="geometry" />
        </mxCell>
        <mxCell id="EABOTO-MHlJF12CyAiMk-5" value="Display Error" style="edgeStyle=none;orthogonalLoop=1;jettySize=auto;html=1;rounded=0;endArrow=open;startSize=14;endSize=14;sourcePerimeterSpacing=8;targetPerimeterSpacing=8;curved=1;exitX=0.525;exitY=0.867;exitDx=0;exitDy=0;exitPerimeter=0;" edge="1" parent="EABOTO-MHlJF12CyAiMk-1">
          <mxGeometry y="-10" width="120" relative="1" as="geometry">
            <mxPoint x="231.5" y="152.5764705882353" as="sourcePoint" />
            <mxPoint x="109" y="152.47058823529412" as="targetPoint" />
            <Array as="points" />
            <mxPoint as="offset" />
          </mxGeometry>
        </mxCell>
        <mxCell id="3nuBFxr9cyL0pnOWT2aG-1" value="Login" style="shape=umlLifeline;perimeter=lifelinePerimeter;container=1;collapsible=0;recursiveResize=0;rounded=0;shadow=0;strokeWidth=1;" parent="1" vertex="1">
          <mxGeometry x="270" y="80" width="100" height="300" as="geometry" />
        </mxCell>
        <mxCell id="3nuBFxr9cyL0pnOWT2aG-5" value="Server" style="shape=umlLifeline;perimeter=lifelinePerimeter;container=1;collapsible=0;recursiveResize=0;rounded=0;shadow=0;strokeWidth=1;" parent="1" vertex="1">
          <mxGeometry x="430" y="80" width="100" height="300" as="geometry" />
        </mxCell>
        <mxCell id="CzvZPEAlLUmnSrhlDcnX-11" value="Login OK" style="endArrow=classic;rounded=0;html=1;labelPosition=center;verticalLabelPosition=top;align=center;verticalAlign=bottom;entryX=0.5;entryY=0.4;entryDx=0;entryDy=0;entryPerimeter=0;" parent="3nuBFxr9cyL0pnOWT2aG-5" edge="1">
          <mxGeometry width="50" height="50" relative="1" as="geometry">
            <mxPoint x="50" y="160" as="sourcePoint" />
            <mxPoint x="-110" y="160" as="targetPoint" />
          </mxGeometry>
        </mxCell>
        <mxCell id="CzvZPEAlLUmnSrhlDcnX-5" value="" style="shape=umlActor;verticalLabelPosition=bottom;verticalAlign=top;html=1;outlineConnect=0;" parent="1" vertex="1">
          <mxGeometry x="186" y="60" width="30" height="60" as="geometry" />
        </mxCell>
        <mxCell id="CzvZPEAlLUmnSrhlDcnX-7" value="" style="endArrow=none;dashed=1;html=1;rounded=0;" parent="1" edge="1">
          <mxGeometry width="50" height="50" relative="1" as="geometry">
            <mxPoint x="200" y="120" as="sourcePoint" />
            <mxPoint x="200" y="380" as="targetPoint" />
          </mxGeometry>
        </mxCell>
        <mxCell id="CzvZPEAlLUmnSrhlDcnX-9" value="Enter website" style="endArrow=classic;rounded=0;html=1;labelPosition=center;verticalLabelPosition=top;align=center;verticalAlign=bottom;" parent="1" edge="1">
          <mxGeometry width="50" height="50" relative="1" as="geometry">
            <mxPoint x="200" y="160" as="sourcePoint" />
            <mxPoint x="320" y="160" as="targetPoint" />
          </mxGeometry>
        </mxCell>
        <mxCell id="CzvZPEAlLUmnSrhlDcnX-10" value="Verify login" style="endArrow=classic;rounded=0;html=1;labelPosition=center;verticalLabelPosition=top;align=center;verticalAlign=bottom;" parent="1" target="3nuBFxr9cyL0pnOWT2aG-5" edge="1">
          <mxGeometry width="50" height="50" relative="1" as="geometry">
            <mxPoint x="320" y="180" as="sourcePoint" />
            <mxPoint x="440" y="180" as="targetPoint" />
          </mxGeometry>
        </mxCell>
        <mxCell id="CzvZPEAlLUmnSrhlDcnX-12" value="Display Dashboard" style="endArrow=classic;html=1;rounded=0;labelPosition=center;verticalLabelPosition=top;align=center;verticalAlign=bottom;exitX=0.49;exitY=0.637;exitDx=0;exitDy=0;exitPerimeter=0;" parent="1" source="3nuBFxr9cyL0pnOWT2aG-1" edge="1">
          <mxGeometry width="50" height="50" relative="1" as="geometry">
            <mxPoint x="420" y="200" as="sourcePoint" />
            <mxPoint x="200" y="270" as="targetPoint" />
          </mxGeometry>
        </mxCell>
        <mxCell id="EABOTO-MHlJF12CyAiMk-4" value="Login Fail" style="edgeStyle=none;orthogonalLoop=1;jettySize=auto;html=1;rounded=0;endArrow=open;startSize=14;endSize=14;sourcePerimeterSpacing=8;targetPerimeterSpacing=8;curved=1;" edge="1" parent="1">
          <mxGeometry y="-10" width="120" relative="1" as="geometry">
            <mxPoint x="480" y="320" as="sourcePoint" />
            <mxPoint x="320" y="320" as="targetPoint" />
            <Array as="points" />
            <mxPoint as="offset" />
          </mxGeometry>
        </mxCell>
      </root>
    </mxGraphModel>
  </diagram>
</mxfile>
